<?xml version="1.0" encoding="UTF-8" standalone="no"?>
<!-- Created with Inkscape (http://www.inkscape.org/) -->

<svg
   width="297mm"
   height="210mm"
   viewBox="0 0 297 210"
   version="1.1"
   id="svg1"
   inkscape:version="1.4.2 (ebf0e940, 2025-05-08)"
   sodipodi:docname="logo_base_cleanup.svg"
   xmlns:inkscape="http://www.inkscape.org/namespaces/inkscape"
   xmlns:sodipodi="http://sodipodi.sourceforge.net/DTD/sodipodi-0.dtd"
   xmlns="http://www.w3.org/2000/svg"
   xmlns:svg="http://www.w3.org/2000/svg">
  <sodipodi:namedview
     id="namedview1"
     pagecolor="#ffffff"
     bordercolor="#000000"
     borderopacity="0.25"
     inkscape:showpageshadow="2"
     inkscape:pageopacity="0.0"
     inkscape:pagecheckerboard="false"
     inkscape:deskcolor="#d1d1d1"
     inkscape:document-units="mm"
     inkscape:clip-to-page="false"
     inkscape:zoom="1.2711951"
     inkscape:cx="578.58941"
     inkscape:cy="314.66453"
     inkscape:current-layer="layer1" />
  <defs
     id="defs1" />
  <g
     inkscape:label="Layer 1"
     inkscape:groupmode="layer"
     id="layer1">
    <path
       style="fill:#000000;stroke-width:0.264583"
       d="m 121.9388,151.6299 c -1.89253,-0.0241 -1.91327,-0.0265 -1.96679,-0.22621 -0.0892,-0.33281 -0.0635,-1.51285 0.0371,-1.70076 0.0924,-0.17261 0.61829,-0.17502 38.22638,-0.17502 37.60809,0 38.13401,0.002 38.22638,0.17502 0.11464,0.21419 0.12217,1.63051 0.01,1.80832 -0.07,0.11052 -5.13359,0.12943 -36.35063,0.13573 -19.94815,0.004 -37.13007,-0.004 -38.18205,-0.0171 z m 73.8508,-0.84035 c 0.0325,-0.0526 0.0341,-0.19515 0.004,-0.3168 l -0.0555,-0.22118 -37.52657,0.0227 c -35.67553,0.0216 -37.526,0.0305 -37.51525,0.18107 0.006,0.0871 0.0164,0.21943 0.0226,0.29408 0.01,0.12041 4.24337,0.13572 37.51166,0.13572 26.24712,0 37.51809,-0.0287 37.55945,-0.0956 z m -75.79111,-5.52828 c -0.11139,-0.20813 -0.0799,-1.58134 0.0408,-1.77656 0.053,-0.0857 8.42674,-0.10972 38.23712,-0.10972 34.72194,0 38.17425,0.0129 38.22422,0.14312 0.10237,0.26678 0.0599,1.71591 -0.0537,1.82943 -0.0841,0.0841 -8.69985,0.10858 -38.22638,0.10858 h -38.11775 z m 75.78794,-0.84572 v -0.27145 l -37.52166,-0.0227 c -35.68193,-0.0216 -37.52333,-0.0149 -37.55562,0.13573 -0.0187,0.0872 -0.0169,0.22975 0.004,0.31691 0.036,0.15068 1.87872,0.15734 37.55561,0.13573 l 37.51774,-0.0227 z m -91.57494,-0.58442 c -0.10226,-0.0414 -0.31807,-0.2258 -0.47958,-0.40976 -0.27698,-0.31546 -0.29261,-0.37046 -0.27517,-0.96783 l 0.0185,-0.63335 -4.017504,-4.01827 -4.017501,-4.01826 h -2.945641 c -2.17041,0 -2.974217,-0.0286 -3.054221,-0.10858 -0.07607,-0.0761 -0.108581,-0.57638 -0.108581,-1.67077 0,-1.45189 0.01234,-1.56881 0.175018,-1.65586 0.113075,-0.0605 1.642252,-0.0948 4.320619,-0.0969 l 4.145599,-0.003 4.026552,4.05449 4.02654,4.0545 0.37672,-0.0812 c 0.47958,-0.1033 0.97522,0.11896 1.28149,0.57465 0.17298,0.25737 0.20504,0.40039 0.17119,0.76351 -0.0346,0.37081 -0.0973,0.49777 -0.36867,0.74649 -0.28018,0.25676 -0.39265,0.29969 -0.78526,0.29969 -0.6105,0 -0.93322,-0.18305 -1.16429,-0.66039 -0.14947,-0.30875 -0.17799,-0.48638 -0.132,-0.82195 l 0.0587,-0.42807 -3.87975,-3.88667 -3.879763,-3.88666 -3.801779,0.0236 -3.801775,0.0236 -0.02558,1.01795 -0.02558,1.01795 2.830596,-0.003 2.830593,-0.003 4.110406,4.14302 4.110402,4.14301 h 0.65729 c 0.62696,0 0.67219,0.0144 0.98022,0.31268 0.50757,0.49147 0.58539,1.17075 0.20127,1.75698 -0.26981,0.41177 -1.05796,0.62531 -1.55902,0.42237 z m 0.87015,-0.75309 c 0.21316,-0.16625 0.27128,-0.40085 0.16716,-0.6747 -0.11362,-0.29884 -0.23341,-0.38241 -0.55076,-0.38423 -0.25636,-0.001 -0.61733,0.35858 -0.61733,0.61575 0,0.40607 0.66882,0.7022 1.00093,0.44318 z m 10.42545,-3.60391 c -0.1658,-0.0479 -0.41758,-0.24132 -0.5844,-0.4489 l -0.29309,-0.3647 -1.76578,0.0208 -1.76578,0.0208 -4.94863,-5.00336 c -2.72174,-2.75185 -4.96887,-5.08075 -4.9936,-5.17533 -0.11236,-0.42966 -0.0208,-0.44024 3.80881,-0.44024 h 3.58551 l 1.54454,1.58403 c 1.39184,1.42742 1.57569,1.58511 1.85969,1.59504 0.17334,0.006 9.21848,0.006 20.10031,-0.001 l 19.78514,-0.0116 1.63781,-1.62871 1.63778,-1.62872 h 28.61554 28.61554 l 2.10036,-2.10376 2.10036,-2.10375 -0.042,-1.7103 c -0.0392,-1.59504 -0.0545,-1.71903 -0.22715,-1.83997 -0.36516,-0.25576 -0.53365,-0.50893 -0.59035,-0.88705 -0.15463,-1.0311 0.94307,-1.75679 1.82908,-1.20921 0.39321,0.24302 0.57402,0.59796 0.57402,1.12687 0,0.35422 -0.0465,0.46706 -0.29408,0.71383 -0.16174,0.1612 -0.34362,0.30983 -0.40419,0.33027 -0.0809,0.0273 -0.1134,0.50555 -0.1225,1.8016 -0.007,0.97044 -0.0458,1.84588 -0.0866,1.94541 -0.0814,0.19845 -4.3678,4.56571 -4.49081,4.57551 -0.0419,0.003 -12.93646,0.0176 -28.65465,0.0317 l -28.57854,0.0256 -1.64407,1.64228 -1.64407,1.64262 h -20.39761 -20.39759 l -1.59236,-1.58347 -1.59236,-1.58347 h -2.87723 c -1.63364,0 -2.86419,0.0346 -2.84707,0.0802 0.0166,0.0441 1.84583,1.92728 4.06499,4.18489 2.21915,2.2576 4.20934,4.29814 4.42263,4.53453 l 0.3878,0.4298 h 1.65505 1.65506 l 0.18209,-0.29408 c 0.49979,-0.8071 1.57507,-0.81213 2.10401,-0.01 0.33362,0.50603 0.13901,1.33733 -0.38835,1.65886 -0.32124,0.19585 -0.58075,0.21644 -1.04326,0.0828 z m 4.56175,-0.27844 c -0.059,-0.0365 -0.11251,-0.41739 -0.12913,-0.91894 -0.0229,-0.69019 -3.5e-4,-0.8847 0.11586,-1.00092 0.13155,-0.13155 3.49628,-0.14425 38.22844,-0.14425 37.56012,0 38.08549,0.002 38.17786,0.17502 0.10877,0.20324 0.12475,1.62662 0.0201,1.79135 -0.0558,0.0879 -8.11795,0.11657 -38.19159,0.13573 -20.96644,0.0133 -38.16613,-0.004 -38.22154,-0.038 z m 75.64313,-0.74572 c 0.13808,-0.053 0.1615,-0.37703 0.033,-0.45646 -0.0861,-0.0532 -68.35714,-0.11626 -72.73044,-0.0672 l -2.28473,0.0256 v 0.25335 c 0,0.13933 0.017,0.27031 0.0377,0.29104 0.0546,0.0546 74.80182,0.008 74.94446,-0.0464 z M 93.870486,137.64216 c -0.171182,-0.0504 -0.422932,-0.23924 -0.580671,-0.43552 l -0.278466,-0.34652 H 73.783291 54.555234 l -5.006909,-5.00547 -5.006905,-5.00548 0.02298,-11.5305 c 0.02281,-11.45382 0.02418,-11.53067 0.203938,-11.55365 0.429553,-0.0549 0.411486,-0.55887 0.40824,11.387 l -0.0031,11.26014 4.819281,4.86269 4.819281,4.8627 19.153928,-0.001 c 18.525868,-0.001 19.155662,-0.006 19.206824,-0.1673 0.250259,-0.7885 1.693532,-0.86312 2.084146,-0.10776 0.282513,0.54632 0.06559,1.49231 -0.384859,1.67836 -0.361121,0.14917 -0.718006,0.1855 -1.001623,0.10196 z m -8.245735,-4.72631 c -0.838861,-0.75787 -0.409188,-2.0796 0.71104,-2.18724 0.832743,-0.08 1.367279,0.46295 1.367279,1.38883 0,0.36808 -0.04396,0.4647 -0.351293,0.77202 -0.324645,0.32465 -0.389828,0.3513 -0.859339,0.3513 -0.455979,0 -0.544906,-0.0333 -0.867687,-0.32491 z m 1.263962,-0.57993 c 0.09953,-0.0995 0.180966,-0.2496 0.180966,-0.33348 0,-0.2273 -0.36367,-0.57136 -0.603919,-0.57136 -0.264764,0 -0.572374,0.30009 -0.572374,0.5584 0,0.48007 0.639205,0.70256 0.995327,0.34644 z m -29.497846,-0.34154 c -0.124415,-0.0877 -2.167739,-2.11311 -4.540718,-4.50099 l -4.314511,-4.34162 -0.0024,-9.64915 -0.0024,-9.64915 2.937056,-2.9293 2.937061,-2.929287 v -5.262182 -5.262182 l -0.301158,-0.186126 c -0.354901,-0.21934 -0.513426,-0.524442 -0.512602,-0.986564 0.0017,-0.880668 1.013111,-1.470547 1.812692,-1.057067 0.280327,0.144961 0.629783,0.720936 0.629783,1.038005 0,0.363806 -0.262444,0.815844 -0.583711,1.005397 l -0.321129,0.189471 v 5.399069 5.399069 l -2.813152,2.803437 c -1.54723,1.54188 -2.870564,2.85723 -2.940737,2.923 -0.108204,0.1014 -0.127585,1.54789 -0.127585,9.5229 v 9.40333 l 4.226172,4.2307 4.226175,4.23069 h 11.701778 11.701768 l 2.667147,-2.71097 2.667146,-2.71099 -0.05558,-0.41898 c -0.136789,-1.03115 0.978306,-1.73482 1.82728,-1.15309 1.127395,0.77249 0.499558,2.38833 -0.858023,2.20824 l -0.417998,-0.0555 -2.668877,2.67541 c -1.467885,1.47148 -2.778833,2.73381 -2.913217,2.80518 -0.208598,0.11078 -1.962242,0.12968 -11.989153,0.12917 -11.068008,-0.001 -11.757855,-0.01 -11.971029,-0.15998 z m 21.45256,-2.34829 c -0.169886,-0.0837 -0.373475,-0.26571 -0.452419,-0.40454 l -0.143536,-0.25241 -9.676822,-0.001 -9.676823,-10e-4 -2.629029,-2.61209 c -1.445964,-1.4367 -2.868529,-2.83129 -3.161253,-3.09913 -0.292728,-0.26785 -0.710086,-0.7045 -0.927464,-0.97034 l -0.395235,-0.48266 v -6.32604 -6.32628 l 1.335698,-1.3792 c 2.199072,-2.2707 2.062047,-2.09287 2.028221,-2.63221 -0.09814,-1.56457 2.15643,-1.81983 2.388773,-0.27046 0.122366,0.816 -0.51397,1.44771 -1.352896,1.34305 l -0.441109,-0.055 -1.612847,1.65595 -1.612851,1.65596 -0.0045,6.0596 -0.0046,6.0596 3.324177,3.32866 3.324176,3.32866 9.090862,-0.002 c 4.999976,-0.001 9.298132,-0.0263 9.551456,-0.0561 0.381617,-0.0448 0.485667,-0.0978 0.606806,-0.30889 0.340873,-0.59394 1.282251,-0.70942 1.793133,-0.21997 0.619955,0.59396 0.52176,1.50028 -0.210955,1.94705 -0.353243,0.21539 -0.731775,0.22226 -1.140946,0.0207 z m 31.889143,-2.42253 -1.59072,-1.58347 -8.47991,-0.001 c -5.183275,-10e-4 -8.532669,-0.0347 -8.615629,-0.0871 -0.117151,-0.074 -0.141918,-0.78734 -0.180969,-5.21216 l -0.04524,-5.1264 -0.584631,0.66671 c -1.215105,1.38569 -3.684932,3.70962 -5.432567,5.11164 -2.722452,2.18406 -5.770347,3.98084 -7.419705,4.37402 -1.495871,0.3566 -2.898922,0.41042 -10.699184,0.41042 h -7.396512 l -2.62461,-2.62346 -2.624614,-2.62346 v -4.44591 -4.44592 l 0.610769,-0.65993 0.61077,-0.65993 v -0.60195 c 0,-0.51857 0.0348,-0.64762 0.25121,-0.93164 0.571003,-0.74938 1.75601,-0.63547 2.193672,0.21088 0.07365,0.14243 0.133915,0.4428 0.133915,0.66749 0,0.7523 -0.742615,1.31836 -1.550496,1.18187 -0.362688,-0.0613 -0.382557,-0.0506 -0.948208,0.51003 l -0.577757,0.57262 v 4.13236 4.13236 l 2.392691,2.43035 2.392692,2.43036 6.633107,0.0116 c 7.25842,0.0128 9.708528,-0.0783 11.041564,-0.41012 3.028429,-0.75393 9.379752,-5.59374 13.132514,-10.00719 0.705794,-0.83006 0.754914,-0.86635 1.030904,-0.76168 l 0.203592,0.0772 v 5.47721 5.47721 h 8.438622 8.43862 l 1.58153,1.58347 1.58153,1.58348 h 17.60092 17.60091 l 1.97167,-1.97319 c 1.91215,-1.91365 1.96879,-1.98074 1.87662,-2.22314 -0.16856,-0.44336 0.10637,-1.14491 0.53569,-1.36692 0.14598,-0.0755 0.45127,-0.13726 0.67842,-0.13726 0.34246,0 0.46959,0.0519 0.74428,0.30359 0.29841,0.27348 0.33524,0.35854 0.37135,0.85789 0.0386,0.53418 0.0287,0.56569 -0.27296,0.86738 -0.37627,0.37627 -0.70205,0.47288 -1.14064,0.33827 l -0.32712,-0.1004 -2.08032,2.07883 -2.08031,2.07882 H 130.21566 112.32329 Z M 57.933772,109.98633 c 0.237158,-0.23716 0.229929,-0.58073 -0.01707,-0.81084 -0.257202,-0.23962 -0.562774,-0.23441 -0.79377,0.0135 -0.233841,0.251 -0.233064,0.43969 0.0031,0.73985 0.22537,0.28651 0.555265,0.30997 0.807792,0.0574 z m 55.648238,15.56547 c -0.0744,-0.047 -1.5873,-1.53695 -3.362,-3.31095 l -3.22674,-3.22544 -0.45153,0.0621 c -0.77726,0.1069 -1.37414,-0.39482 -1.37488,-1.1557 -0.001,-0.96377 1.0766,-1.6194 1.78827,-1.08806 0.46211,0.34502 0.60922,0.63764 0.60922,1.21185 v 0.53558 l 3.16646,3.16752 3.16646,3.16751 h 10.94704 10.94704 l 4.68578,-4.68255 4.68578,-4.68256 h 27.86281 27.86281 l 2.88661,-2.93543 2.8866,-2.93543 -0.0862,-0.33976 c -0.22905,-0.90238 0.88331,-1.74602 1.72486,-1.30816 0.48807,0.25394 0.68661,0.56105 0.67923,1.05066 -0.0122,0.81188 -0.53657,1.29004 -1.36591,1.24565 l -0.47859,-0.0256 -2.95981,2.9635 -2.9598,2.9635 -23.93307,0.002 c -13.16319,0.001 -25.70219,4e-5 -27.86446,-0.002 l -3.93139,-0.004 -4.7127,4.707 -4.71269,4.707 -11.17195,-0.001 c -6.85664,-0.001 -11.22419,-0.0344 -11.30721,-0.0869 z m 27.01495,-0.62908 c -0.10251,-0.11327 -0.13123,-0.22149 -0.0819,-0.30853 0.0418,-0.0737 1.26769,-1.33893 2.72418,-2.81152 l 2.64819,-2.67744 h 6.09087 6.09087 l 0.12516,-0.23385 c 0.44328,-0.82827 1.63265,-0.83152 2.12519,-0.006 0.2926,0.49053 0.11065,1.36665 -0.33314,1.60416 -0.68674,0.36753 -1.31117,0.26395 -1.68717,-0.27987 l -0.2447,-0.3539 -5.9247,-0.004 -5.92472,-0.004 -2.62959,2.62404 c -1.44627,1.44322 -2.67257,2.62404 -2.72512,2.62404 -0.0525,0 -0.16659,-0.0785 -0.25343,-0.17446 z m 16.38466,-0.0971 c -0.75959,-0.23474 -1.11159,-1.19012 -0.69203,-1.87824 0.69096,-1.13325 2.37928,-0.69247 2.42847,0.63401 0.016,0.43056 -0.20839,0.87802 -0.55371,1.10427 -0.27014,0.17701 -0.84337,0.24484 -1.18273,0.13996 z m 0.89735,-0.94552 c 0.37955,-0.57927 -0.50883,-1.15457 -0.92966,-0.60204 -0.16257,0.21346 -0.13998,0.43823 0.0646,0.64285 0.25676,0.25675 0.68323,0.23663 0.86502,-0.0408 z m 9.7539,0.75634 c -0.55306,-0.16006 -0.47974,-0.29855 0.88889,-1.67894 l 1.28763,-1.2987 h 13.27151 c 11.81759,0 13.28414,0.0152 13.38672,0.13881 0.17984,0.2167 0.008,0.44899 -1.26635,1.70969 l -1.1496,1.13748 H 181.105 c -7.12068,0 -13.00091,0.0167 -13.0672,0.037 -0.0663,0.0203 -0.24849,-5e-5 -0.40493,-0.0453 z m 26.04399,-0.72453 c 0.24177,-0.12939 1.55665,-1.43368 1.50121,-1.48912 -0.0256,-0.0255 -5.68049,-0.0447 -12.56658,-0.0426 l -12.52016,0.004 -0.7501,0.74581 -0.75011,0.74582 1.20133,0.0503 c 2.24794,0.094 23.70602,0.0815 23.88441,-0.014 z m -30.66833,0.67294 c -0.36362,-0.14672 -0.0806,-0.49816 2.53356,-3.14555 l 2.64666,-2.68036 19.82917,0.002 19.82916,0.002 4.69776,-4.74281 4.69776,-4.74281 2.6889,-0.0302 2.68891,-0.0302 0.23145,-0.29587 c 0.6403,-0.81845 1.74242,-0.75006 2.13275,0.13234 0.59385,1.34249 -1.15516,2.36475 -2.09506,1.22451 l -0.27787,-0.33711 -2.50929,0.0292 -2.50927,0.0292 -4.75074,4.74379 -4.75074,4.74381 h -19.80923 -19.80924 l -2.54418,2.5788 c -1.3993,1.41834 -2.60339,2.57559 -2.67577,2.57166 -0.0724,-0.004 -0.18248,-0.0277 -0.24469,-0.0528 z M 61.247696,120.86705 c -0.06487,-0.22242 -0.07613,-0.59497 -0.06566,-2.17162 l 0.0092,-1.37989 2.827631,-0.001 c 1.555198,-6.8e-4 3.50123,-0.0404 4.324517,-0.0882 6.34555,-0.36854 11.814651,-2.98384 15.801938,-7.55642 1.781105,-2.04254 3.354928,-4.8647 4.038017,-7.2409 1.341381,-4.666155 1.127218,-8.863879 -0.68774,-13.479976 -0.306399,-0.779152 -1.393642,-2.759005 -2.060073,-3.751253 -0.826119,-1.230008 -2.638584,-3.186108 -3.883815,-4.1916 -2.171084,-1.75309 -4.779915,-3.073695 -7.432011,-3.762124 -2.122842,-0.551047 -2.473745,-0.578759 -7.877342,-0.622113 -4.138938,-0.03321 -4.95532,-0.06047 -4.996129,-0.166816 -0.08925,-0.23258 -0.07315,-3.223136 0.01785,-3.314127 0.126268,-0.12627 34.942976,-0.104213 35.745115,0.02265 1.295123,0.204824 2.419537,0.570918 3.675046,1.196543 5.02455,2.503749 7.01511,9.271385 4.47933,15.229194 -0.19744,0.463897 -0.35898,0.861342 -0.35898,0.883213 0,0.02187 0.72274,0.06043 1.60609,0.08569 1.80614,0.05165 2.42154,0.162395 3.79363,0.6827 1.64917,0.62538 2.82205,1.490388 3.68119,2.714923 1.06135,1.512756 1.48107,2.728388 1.56722,4.539238 0.12918,2.715182 -0.70242,5.000232 -2.45375,6.742302 -0.99353,0.98828 -1.94747,1.57245 -3.35348,2.05361 -0.54743,0.18734 -0.99417,0.37169 -0.99275,0.40967 0.001,0.038 0.16429,0.32675 0.36194,0.64172 1.7635,2.81034 4.58777,5.64987 7.36176,7.40157 3.42049,2.15995 7.24582,3.50175 11.57317,4.05949 1.3122,0.16912 4.47056,0.40323 5.47654,0.40594 0.38896,0.001 0.78596,0.0441 0.88222,0.0956 0.2353,0.12592 0.2213,0.34394 -0.0286,0.44488 -0.22044,0.0891 -6.05598,0.2796 -8.48289,0.27698 -3.85292,-0.004 -6.47736,-0.43485 -9.43052,-1.54758 -2.92164,-1.10086 -4.97537,-2.37403 -6.97704,-4.32527 -0.99493,-0.96987 -1.72076,-1.85136 -2.57461,-3.12677 -1.23823,-1.84957 -3.00548,-5.664 -3.00548,-6.48702 0,-0.33115 0.21788,-0.43975 0.88227,-0.43975 1.06063,0 2.5824,-0.40074 3.64193,-0.95905 1.22747,-0.6468 2.25811,-1.86572 2.69859,-3.19156 0.19416,-0.58443 0.23031,-0.86376 0.23574,-1.821352 0.005,-0.944976 -0.0285,-1.242698 -0.20564,-1.809683 -0.69815,-2.234316 -2.41055,-3.373711 -5.26224,-3.501396 -0.9331,-0.04178 -1.30886,-0.01653 -2.14699,0.14425 -2.41142,0.4626 -4.751941,1.59375 -6.720462,3.247929 -1.973732,1.658558 -3.505628,3.824732 -5.260372,7.438432 -2.521987,5.19375 -3.242944,6.31986 -5.497514,8.58697 -3.421092,3.44013 -7.355251,5.64297 -12.315581,6.89582 -2.712317,0.68506 -4.967218,0.89402 -9.653089,0.89454 -2.695593,0 -2.91545,-0.0115 -2.958205,-0.15803 z m 7.679907,-0.66006 c 5.765522,-0.49204 11.239623,-2.65778 15.063429,-5.9596 3.141453,-2.71262 4.61231,-4.79764 6.915798,-9.80352 0.575359,-1.25036 1.780663,-3.4052 2.391251,-4.27508 1.20461,-1.716162 2.871689,-3.438552 4.313006,-4.456103 0.675747,-0.477069 2.573183,-1.494142 3.471543,-1.860835 0.21729,-0.08869 0.86878,-0.287274 1.44775,-0.441286 0.91696,-0.243923 1.2459,-0.285493 2.55164,-0.322464 1.1538,-0.03267 1.65975,-0.0092 2.19718,0.101951 0.95313,0.19711 1.88594,0.604538 2.61251,1.14108 2.47969,1.831127 2.90787,6.110907 0.875,8.745877 -1.13569,1.47208 -3.76359,2.74704 -5.66205,2.74704 -0.31356,0 -0.39056,0.0316 -0.39056,0.16041 0,0.56735 1.79123,4.20778 2.88836,5.87021 1.47456,2.23431 3.32088,3.95297 5.8886,5.48144 2.00789,1.19522 5.37674,2.34118 8.05309,2.73936 0.52255,0.0777 1.70337,0.16033 2.62405,0.18355 l 1.67395,0.0422 -0.75124,-0.17707 c -7.08943,-1.67098 -12.65289,-5.32693 -16.23813,-10.67065 -0.34754,-0.518 -0.75448,-1.20376 -0.90429,-1.52392 -0.33219,-0.70986 -0.33936,-0.70038 0.83739,-1.10799 1.89441,-0.65619 2.55922,-1.02259 3.51393,-1.93664 1.46096,-1.39874 2.30808,-3.28031 2.42841,-5.393889 0.11306,-1.985754 -0.47492,-3.913733 -1.62796,-5.337986 -1.69675,-2.095866 -4.77945,-3.126166 -8.37346,-2.798587 -1.18854,0.10833 -1.23001,0.0066 -0.56563,-1.387146 0.87979,-1.845707 1.26821,-3.374704 1.34063,-5.277358 0.16713,-4.390838 -1.97937,-8.221142 -5.525223,-9.859426 -0.818503,-0.378171 -1.913841,-0.699844 -3.037444,-0.89202 -0.763922,-0.130658 -2.63579,-0.14588 -17.938491,-0.14588 H 61.915078 v 1.040568 1.040568 h 4.458719 c 5.546274,0 6.371723,0.09042 9.14678,1.0019 2.996833,0.984325 5.615773,2.599434 7.985719,4.924814 1.242259,1.218901 1.970121,2.09839 2.870438,3.468407 2.66098,4.049225 3.856879,9.103632 3.271913,13.82861 -0.314084,2.536985 -0.828143,4.276055 -1.948207,6.590805 -1.954027,4.03826 -5.356542,7.46327 -9.625548,9.6892 -2.00641,1.04617 -4.500149,1.87417 -6.975669,2.31613 -0.963741,0.17206 -1.543581,0.19984 -5.157598,0.24718 l -4.071789,0.0533 -0.02534,1.15368 -0.02531,1.15367 3.011299,-10e-4 c 1.656218,-0.001 3.49992,-0.0426 4.097116,-0.0936 z m 23.33283,-22.786503 c -0.15807,-0.147266 -0.1844,-0.298611 -0.200695,-1.153674 -0.04873,-2.557126 -0.742041,-5.961359 -1.696518,-8.330152 -0.622154,-1.544044 -1.519868,-3.222754 -2.507199,-4.688416 -1.407976,-2.090094 -3.918869,-4.509839 -6.418982,-6.185968 -0.541958,-0.363341 -0.701252,-0.518376 -0.701252,-0.682508 0,-0.468271 -0.27163,-0.45266 7.949198,-0.456844 l 7.659322,-0.0039 0.769116,0.210058 c 2.895677,0.790857 4.696517,2.593509 5.556897,5.562475 1.03231,3.562283 -0.0636,7.538943 -2.792988,10.13443 -0.251111,0.238792 -1.087688,0.888556 -1.859065,1.44392 -1.902938,1.370043 -2.380379,1.742198 -3.800335,2.962275 -1.194829,1.026637 -1.614889,1.357804 -1.722273,1.357804 -0.02931,0 -0.13516,-0.07627 -0.235226,-0.1695 z m 1.707862,-1.964765 c 1.024214,-0.887324 3.101019,-2.496299 3.733275,-2.892299 2.07281,-1.298256 3.56733,-3.274485 4.2885,-5.670767 0.93544,-3.108225 -0.038,-6.745189 -2.321097,-8.672016 -0.955288,-0.806224 -2.40303,-1.381587 -3.793975,-1.507809 -0.93814,-0.08513 -13.512096,-0.03803 -13.507062,0.0506 0.0021,0.03324 0.223602,0.21328 0.492698,0.400083 3.504058,2.432461 6.528869,6.291792 8.173093,10.427977 1.017745,2.560222 1.736455,5.920328 1.736455,8.118253 0,0.387175 0.02079,0.703954 0.04618,0.703954 0.02541,0 0.543767,-0.431086 1.151933,-0.957971 z m 4.102444,25.428248 c -0.126632,-0.12663 -0.141426,-1.24921 -0.141443,-10.73201 l -1.7e-5,-10.590595 0.283781,-0.265091 c 0.396541,-0.370425 1.641013,-1.259537 2.3186,-1.656518 0.36663,-0.214804 0.65532,-0.322702 0.81435,-0.304372 l 0.24638,0.02839 0.023,11.708016 c 0.0168,8.57731 -0.004,11.74085 -0.079,11.83081 -0.16021,0.19304 -3.270715,0.17632 -3.465668,-0.0186 z m 2.843021,-11.57628 c 0,-6.04661 -0.0157,-10.993829 -0.0349,-10.993829 -0.0965,0 -1.250536,0.812826 -1.705369,1.201117 l -0.518761,0.44287 -0.0024,10.171842 -0.0024,10.17183 h 1.131801 1.131799 z m -39.613976,5.18475 c -0.0837,-0.0837 -0.108581,-4.10647 -0.108581,-17.556178 v -17.44759 l 0.212289,-0.08071 c 0.117158,-0.04454 2.276262,-0.07077 4.818282,-0.05854 3.785442,0.01822 4.767192,0.04887 5.510837,0.172042 5.815596,0.963226 10.364313,4.300823 12.848175,9.427283 1.294898,2.672547 1.844575,5.287131 1.731083,8.23406 -0.07815,2.029269 -0.315874,3.378923 -0.88453,5.021873 -0.998108,2.8837 -2.784838,5.57192 -4.975583,7.486 -3.10316,2.71126 -6.481757,4.23164 -10.601328,4.77062 -1.379379,0.18048 -8.37583,0.20595 -8.550644,0.0311 z m 9.017102,-0.83952 c 2.66232,-0.39988 5.241556,-1.38752 7.436876,-2.84774 4.098156,-2.72589 6.739794,-6.65745 7.572215,-11.269782 0.28861,-1.599154 0.327026,-3.99564 0.08703,-5.429051 C 85.234304,93.039041 84.83436,91.354591 84.72698,91.217 84.6855,91.16385 84.623433,91.002893 84.589053,90.859312 84.468163,90.354471 83.374542,88.21495 82.779935,87.320033 80.305676,83.596125 76.504389,81.132007 71.958822,80.30544 70.755943,80.086709 69.825426,80.063365 64.108274,80.108497 l -2.285769,0.01804 0.0049,16.773569 c 0.0027,9.225464 0.0303,16.798994 0.06137,16.830064 0.03105,0.031 1.739762,0.0565 3.797097,0.0565 2.838356,0 3.955386,-0.0323 4.63104,-0.13374 z m -5.84563,-2.14832 -0.203592,-0.0982 V 96.9901 82.573786 l 0.222586,-0.145843 c 0.197077,-0.12913 0.583328,-0.141209 3.370536,-0.105408 2.815029,0.03616 3.243645,0.06148 4.052794,0.239374 3.72621,0.819245 6.931704,2.974194 8.964912,6.026824 1.022265,1.534812 1.817783,3.448409 2.180929,5.246161 0.236378,1.170201 0.233488,4.462832 -0.0049,5.564778 -0.654728,3.026658 -1.975258,5.463488 -4.111698,7.587478 -0.633026,0.62934 -1.491301,1.38612 -1.907281,1.68174 -2.075327,1.47485 -5.140633,2.58674 -7.868711,2.85426 -1.241558,0.12175 -4.43081,0.10915 -4.695591,-0.0185 z m 4.084904,-0.70567 c 2.123742,-0.15312 4.085354,-0.6492 5.903616,-1.49296 3.227866,-1.4979 5.993676,-4.54775 7.301543,-8.05137 0.839322,-2.248462 1.005131,-5.391659 0.416024,-7.88649 -0.591652,-2.505601 -2.132056,-5.100875 -4.071457,-6.859583 -1.700611,-1.542165 -3.733761,-2.582805 -6.237551,-3.192602 -0.897272,-0.218531 -1.114796,-0.233546 -3.913437,-0.270133 l -2.963359,-0.03874 v 13.881734 c 0,7.634954 0.02715,13.908884 0.06032,13.942054 0.0896,0.0896 2.068963,0.0716 3.504298,-0.0319 z m 55.03383,-0.0955 c -2.71852,-0.2946 -5.17439,-2.34692 -6.05602,-5.0609 -0.63975,-1.96938 -0.48351,-4.10241 0.44072,-6.016617 0.88579,-1.834588 2.78842,-3.37167 4.75797,-3.843826 1.03419,-0.247926 2.76383,-0.252153 3.71424,-0.0091 1.44357,0.369204 2.55294,1.032379 3.61431,2.160624 0.73008,0.776084 1.19391,1.55856 1.64303,2.771779 0.24437,0.66012 0.27436,0.86132 0.31255,2.0968 0.0491,1.5876 -0.076,2.38171 -0.54695,3.47088 -1.33633,3.09092 -4.39107,4.8084 -7.87985,4.43033 z m 2.491,-0.86055 c 1.92896,-0.36584 3.56129,-1.63642 4.49333,-3.49755 0.56491,-1.12801 0.69109,-1.70827 0.69383,-3.19053 0.002,-1.08008 -0.0289,-1.36646 -0.20968,-1.94313 -0.73351,-2.340058 -2.48641,-4.090897 -4.67341,-4.66794 -0.83414,-0.220088 -2.31282,-0.265574 -3.12171,-0.09603 -1.45396,0.304757 -3.10795,1.362605 -3.98344,2.547718 -1.87069,2.532262 -1.7933,6.167472 0.18354,8.621292 0.86909,1.0788 2.32969,1.96048 3.70013,2.23358 0.83045,0.16549 2.0217,0.16247 2.91741,-0.007 z m -2.41046,-0.82457 c -1.37822,-0.18325 -3.00934,-1.29185 -3.75417,-2.55156 -1.08477,-1.83463 -1.22379,-3.81025 -0.40919,-5.81499 0.64226,-1.580599 1.99427,-2.753514 3.69635,-3.2067 0.25685,-0.06839 0.86831,-0.124829 1.3588,-0.12542 1.78096,-0.0022 3.14714,0.606489 4.24542,1.891341 0.9311,1.089299 1.32369,2.121589 1.39657,3.672359 0.0882,1.87603 -0.45441,3.34211 -1.69476,4.57929 -1.27799,1.27472 -2.93809,1.80842 -4.83902,1.55568 z m 1.83613,-0.80342 c 1.90474,-0.38987 3.28156,-1.71889 3.7891,-3.65759 0.20271,-0.77427 0.19815,-2.12897 -0.01,-2.85025 -0.46506,-1.61464 -1.59965,-2.865383 -3.08936,-3.405635 -0.43113,-0.156352 -0.73857,-0.194238 -1.57618,-0.194238 -0.8376,0 -1.14503,0.03789 -1.57616,0.194238 -0.75444,0.273598 -1.31601,0.658256 -1.94917,1.335109 -0.57046,0.609826 -0.85748,1.095516 -1.14337,1.934796 -0.21305,0.62545 -0.23776,2.34839 -0.0435,3.03123 0.1584,0.55671 0.64255,1.49115 1.01855,1.96589 0.56817,0.71739 1.75536,1.43536 2.72485,1.64791 0.75766,0.1661 1.03721,0.16588 1.85481,-0.001 z m 25.55221,2.49272 c -2.96061,-0.3024 -5.4869,-2.54923 -6.23199,-5.54258 -0.28758,-1.15531 -0.31803,-2.72237 -0.0732,-3.76831 0.62293,-2.661658 2.50545,-4.714033 5.06682,-5.523974 0.87678,-0.277253 2.97903,-0.356578 3.87534,-0.146231 2.20229,0.516837 4.13801,2.078843 5.0356,4.063405 0.57265,1.26614 0.67928,1.79393 0.6798,3.36488 0,1.23495 -0.0295,1.55129 -0.20367,2.15221 -0.45926,1.58491 -1.50278,3.13583 -2.66684,3.9636 -1.67952,1.1943 -3.41191,1.64842 -5.48182,1.437 z m 3.02434,-1.01089 c 1.86983,-0.55748 3.61854,-2.28323 4.23681,-4.18117 0.57334,-1.76004 0.50746,-3.56957 -0.18972,-5.21101 -0.75494,-1.777428 -2.46339,-3.251062 -4.37378,-3.772635 -0.79936,-0.218242 -2.61819,-0.217103 -3.4384,0.0022 -1.23356,0.329756 -2.24057,0.941101 -3.17297,1.926267 -0.64282,0.679191 -1.11203,1.484588 -1.4672,2.518418 -0.26269,0.76465 -0.28162,0.90555 -0.28625,2.13081 -0.006,1.46266 0.16039,2.26075 0.68455,3.29274 0.81395,1.60248 2.3866,2.91259 4.01566,3.34527 0.82674,0.21957 0.91257,0.22751 2.12638,0.19668 0.87145,-0.0221 1.2995,-0.0789 1.86492,-0.24752 z m -3.06262,-0.70312 c -1.07998,-0.19581 -1.991,-0.67844 -2.83616,-1.50251 -0.74103,-0.72254 -1.13579,-1.34811 -1.506,-2.38653 -0.26393,-0.74035 -0.32459,-2.47031 -0.11902,-3.39434 0.41876,-1.882224 1.83067,-3.497917 3.60283,-4.122836 0.76934,-0.271292 2.31709,-0.342183 3.15859,-0.144672 1.06828,0.250736 1.75926,0.641414 2.58198,1.459842 1.27983,1.273166 1.80987,2.701756 1.71196,4.614176 -0.0566,1.10452 -0.17935,1.58306 -0.65137,2.53837 -0.61223,1.23905 -1.89828,2.35159 -3.19572,2.76456 -0.67012,0.21329 -2.04864,0.30058 -2.74709,0.17394 z m 1.87633,-0.77208 c 2.09639,-0.44015 3.56669,-2.03448 3.95283,-4.2863 0.27576,-1.60811 -0.42309,-3.5422 -1.70239,-4.711409 -1.08456,-0.991221 -2.64819,-1.381603 -4.20888,-1.050807 -1.71992,0.364546 -3.16389,1.829506 -3.61719,3.669776 -0.0674,0.27371 -0.11945,0.9252 -0.1156,1.44774 0.009,1.23345 0.28789,2.12831 0.9356,3.00272 0.76379,1.0311 1.72061,1.6579 2.93944,1.92557 0.73122,0.16058 1.06187,0.16108 1.81619,0.003 z m 29.31688,2.52591 c -1.74329,-0.24595 -2.56619,-0.55565 -3.71,-1.39629 -0.52078,-0.38274 -1.35856,-1.26339 -1.7679,-1.85835 -0.39015,-0.56707 -0.88278,-1.67672 -1.05925,-2.38599 -0.2083,-0.83725 -0.2018,-3.00421 0.0114,-3.80693 0.94552,-3.559416 3.65935,-5.700503 7.22539,-5.700503 1.53228,0 3.01188,0.358393 3.80183,0.920894 l 0.24892,0.177239 v 1.345762 c 0,0.816592 -0.0363,1.368175 -0.0922,1.402764 -0.0507,0.03135 -0.28486,-0.08338 -0.52028,-0.254963 -1.0891,-0.793744 -2.0414,-1.098396 -3.41403,-1.092199 -1.1628,0.0052 -1.71622,0.166464 -2.64194,0.769595 -1.12504,0.732995 -1.81581,1.789231 -2.07911,3.179131 -0.56759,2.99621 1.088,5.60942 3.92555,6.19617 0.62284,0.12878 0.8483,0.13644 1.44743,0.0491 1.05147,-0.15326 2.05717,-0.58218 2.84726,-1.21434 0.46558,-0.37251 0.52736,-0.22995 0.52736,1.21699 0,1.49006 0.0234,1.43988 -0.8524,1.8272 -1.03325,0.45695 -2.93116,0.76111 -3.89802,0.6247 z m 2.15282,-0.89781 c 0.3587,-0.0752 0.91685,-0.23339 1.24034,-0.35152 l 0.58814,-0.21479 0.0272,-0.56238 c 0.0149,-0.3093 -0.005,-0.54789 -0.0452,-0.53018 -0.0398,0.0177 -0.29008,0.1466 -0.55614,0.28643 -2.08545,1.09608 -4.94709,0.65621 -6.60671,-1.01554 -1.09515,-1.10315 -1.6476,-2.5463 -1.64869,-4.30684 -10e-4,-2.21232 0.89191,-3.945124 2.58499,-5.014404 1.01553,-0.641363 1.52852,-0.772407 3.03243,-0.774639 1.45881,-0.0022 1.90331,0.1021 3.18957,0.748161 0.0373,0.01875 0.0679,-0.195507 0.0679,-0.476123 v -0.510209 l -0.47504,-0.21694 c -2.45183,-1.119693 -5.56434,-0.573656 -7.47969,1.312188 -2.47602,2.437866 -2.75471,6.400096 -0.64695,9.197666 0.88714,1.17747 2.1755,2.03011 3.53457,2.33919 0.37324,0.0849 0.71934,0.1674 0.76911,0.18336 0.26822,0.086 1.86113,0.0246 2.42427,-0.0934 z m 7.46081,0.81251 c -0.67784,-0.13485 -1.52893,-0.53277 -2.07066,-0.96812 -0.58341,-0.46884 -1.18093,-1.4497 -1.4276,-2.34347 -0.188,-0.68121 -0.16716,-0.70431 0.97608,-1.08192 0.56596,-0.18693 1.08031,-0.3202 1.14301,-0.29614 0.0627,0.024 0.13802,0.19392 0.1674,0.37747 0.0294,0.18355 0.15666,0.54082 0.28283,0.79394 0.54114,1.08558 1.95699,1.52727 3.17252,0.9897 0.80365,-0.35541 1.12727,-0.85222 1.12727,-1.73058 0,-1.29231 -0.40966,-1.67306 -2.71041,-2.51919 -1.46475,-0.53867 -2.12745,-0.90347 -2.71864,-1.49655 -0.64144,-0.64349 -0.87208,-1.12958 -0.98819,-2.08273 -0.27563,-2.262704 0.83631,-3.940618 2.99798,-4.523897 0.63404,-0.171084 0.9125,-0.195789 1.83455,-0.162764 1.01282,0.03628 1.13356,0.06065 1.76818,0.356967 0.9515,0.444268 2.15926,1.554229 2.1666,1.991165 0.001,0.08238 -0.27233,0.353708 -0.60825,0.602949 -0.33592,0.249241 -0.70948,0.55848 -0.83013,0.687197 -0.3238,0.345458 -0.55039,0.293624 -0.86645,-0.198216 -0.1493,-0.232331 -0.44298,-0.542149 -0.65264,-0.688487 -0.32328,-0.225655 -0.48982,-0.272355 -1.09654,-0.307478 -0.80612,-0.04666 -1.2376,0.05959 -1.64952,0.406196 -0.37432,0.314966 -0.53736,0.666241 -0.53736,1.157741 0,0.953317 0.44406,1.315377 2.57551,2.099877 1.43031,0.52644 2.05522,0.86928 2.72474,1.49483 0.66861,0.62469 0.98892,1.27349 1.1302,2.28927 0.22124,1.59062 -0.23208,2.98894 -1.29482,3.99403 -1.15955,1.09665 -2.82477,1.51451 -4.61566,1.15821 z m 2.46391,-0.81658 c 1.09231,-0.25744 2.06141,-1.10201 2.45517,-2.13967 0.29896,-0.78784 0.30833,-2.34421 0.0179,-2.97706 -0.42808,-0.9329 -1.38863,-1.60475 -3.41276,-2.38706 -1.36735,-0.52847 -1.70817,-0.70717 -2.18227,-1.14417 -1.13085,-1.04238 -0.80285,-2.917556 0.63051,-3.604687 0.69066,-0.331087 1.33656,-0.414589 2.11433,-0.273343 0.6905,0.125394 1.19368,0.385433 1.63564,0.845283 l 0.30638,0.318774 0.34963,-0.280974 c 0.19231,-0.154536 0.34964,-0.334268 0.34964,-0.399404 0,-0.17353 -1.25627,-1.090051 -1.72444,-1.258086 -0.6223,-0.223349 -1.92012,-0.273322 -2.5948,-0.09991 -1.71011,0.439546 -2.63656,1.495668 -2.72129,3.102216 -0.0966,1.831091 0.85395,2.857121 3.42116,3.692861 1.07984,0.35154 2.11835,0.90929 2.48023,1.33206 0.60479,0.70656 0.73486,1.90713 0.32481,2.99784 -0.74476,1.98098 -4.41491,2.05143 -5.43211,0.10428 -0.13034,-0.2495 -0.25978,-0.54081 -0.28764,-0.64736 -0.047,-0.17971 -0.0781,-0.18674 -0.43072,-0.0972 -0.20904,0.0531 -0.4021,0.15387 -0.42902,0.22402 -0.0269,0.0701 0.0646,0.39465 0.20332,0.7211 0.41763,0.98266 1.2366,1.66402 2.37791,1.97836 0.58666,0.16158 1.84607,0.15772 2.54838,-0.008 z m -60.54122,0.49706 c -0.0485,-0.03 -0.0727,-3.00092 -0.059,-7.23874 l 0.0232,-7.187808 h 2.8955 c 2.81034,0 2.91236,0.0062 3.46905,0.211376 0.85547,0.315277 1.16228,0.527884 1.69665,1.175725 0.66363,0.804557 0.80626,1.25545 0.80626,2.548961 0,0.940316 -0.0234,1.090566 -0.24322,1.559536 -0.13378,0.28543 -0.35551,0.66618 -0.49275,0.8461 -0.24123,0.31627 -0.24366,0.33039 -0.0735,0.42529 0.34106,0.19016 1.12486,0.99657 1.36208,1.40137 0.34791,0.59366 0.48564,1.21617 0.48685,2.20054 0.002,1.27602 -0.31725,2.10174 -1.11692,2.89264 -0.42736,0.42267 -1.50302,0.95124 -2.18468,1.07353 -0.56021,0.10051 -6.42317,0.18215 -6.5695,0.0915 z m 7.16881,-1.04739 c 1.34839,-0.63888 1.97622,-1.60561 1.97851,-3.04651 0.002,-1.56903 -0.63821,-2.52285 -2.14113,-3.18751 l -0.50403,-0.22291 0.58947,-0.62487 c 0.76474,-0.81067 0.99669,-1.37812 1.00216,-2.45178 0.004,-0.686755 -0.0277,-0.834787 -0.29095,-1.382373 -0.34328,-0.713938 -0.88792,-1.20023 -1.70819,-1.525216 -0.48758,-0.193171 -0.67652,-0.208365 -2.98921,-0.240368 l -2.46874,-0.03416 0.0135,6.530717 0.0135,6.53071 2.95293,-0.0309 2.95291,-0.0309 z m -5.44322,-0.50061 c -0.002,-0.0661 -0.0118,-1.32146 -0.0226,-2.78956 l -0.0196,-2.66929 2.02983,-0.0244 c 1.70196,-0.0205 2.10387,9e-5 2.48831,0.12717 0.90387,0.29878 1.30345,0.66162 1.70104,1.54459 0.15255,0.33878 0.19596,0.61249 0.19821,1.24982 0.003,0.74674 -0.0208,0.85815 -0.27604,1.31202 -0.29941,0.53239 -0.73692,0.89173 -1.39093,1.14239 -0.54616,0.20933 -4.70327,0.30404 -4.70818,0.10726 z m 4.25576,-0.81092 c 0.85673,-0.19375 1.35162,-0.8595 1.35528,-1.8232 0.003,-0.87104 -0.37039,-1.50045 -1.12907,-1.90164 -0.32237,-0.17047 -0.54735,-0.19535 -2.05851,-0.22768 l -1.69658,-0.0363 v 2.03057 c 0,1.11682 0.0264,2.05701 0.0588,2.08932 0.0864,0.0864 2.99428,-0.0235 3.47013,-0.13108 z m -4.27284,-5.4781 c -0.0215,-0.0411 -0.036,-1.19441 -0.0322,-2.562983 l 0.007,-2.488315 1.67396,-0.02634 c 2.12243,-0.03339 2.62976,0.08678 3.19317,0.756347 0.52777,0.627225 0.70826,1.740158 0.4357,2.686681 -0.16499,0.57299 -0.70038,1.16546 -1.2955,1.43361 -0.4405,0.19848 -0.61585,0.21796 -2.21072,0.24562 -0.95276,0.0165 -1.74991,-0.004 -1.77146,-0.0446 z m 3.58426,-0.93035 c 0.4825,-0.22615 0.62468,-0.34705 0.85776,-0.72939 0.3534,-0.57971 0.22666,-1.749336 -0.23775,-2.194272 -0.425,-0.407176 -0.90865,-0.518655 -2.25015,-0.518655 h -1.21016 v 1.803049 c 0,1.639288 0.0144,1.807238 0.15835,1.849188 0.0871,0.0254 0.64248,0.0278 1.2342,0.005 0.80822,-0.0307 1.16838,-0.0842 1.44775,-0.21518 z m 24.54625,8.80321 c -0.0332,-0.0332 -0.0603,-2.78163 -0.0603,-6.10768 v -6.047363 h -1.8891 c -1.40176,0 -1.91287,-0.02918 -1.9813,-0.113105 -0.0713,-0.0874 -0.0938,-1.717797 -0.0301,-2.172368 0.005,-0.03774 2.32036,-0.05809 5.1446,-0.04524 l 5.13498,0.02337 v 1.131053 1.131052 l -1.94541,0.02431 -1.94541,0.02431 0.0239,5.982071 c 0.0174,4.3659 -0.004,6.01555 -0.079,6.10599 -0.0768,0.0925 -0.38276,0.12393 -1.20774,0.12393 -0.60769,0 -1.13204,-0.0271 -1.16521,-0.0603 z m 1.68085,-6.79385 0.0233,-6.039824 1.94541,-0.04524 1.94541,-0.04524 v -0.407183 -0.407179 l -4.41361,-0.02348 c -4.88742,-0.026 -4.57832,-0.06531 -4.45969,0.56707 l 0.0593,0.316013 h 1.94131 1.94131 v 6.062443 6.06244 h 0.49702 0.49702 z m 6.15268,6.70091 c -0.0368,-0.0899 -0.067,-3.35979 -0.067,-7.26644 v -7.103009 l 1.16895,-0.02544 c 0.64292,-0.01399 1.20025,0.0064 1.2385,0.04524 0.082,0.08334 0.13385,14.299119 0.0525,14.380519 -0.0305,0.0305 -0.56635,0.0728 -1.19073,0.094 -1.03052,0.035 -1.14142,0.0235 -1.20221,-0.12489 z m 1.69747,-7.18998 v -6.509869 l -0.50956,0.02714 -0.50956,0.02714 -0.0107,6.488919 c -0.0106,6.42405 -0.009,6.48918 0.17024,6.51486 0.0995,0.0143 0.33366,0.0115 0.52028,-0.006 l 0.33932,-0.0321 z M 48.167913,98.788763 c -0.810336,-0.4132 -0.946679,-1.386676 -0.297847,-2.12662 0.372937,-0.425304 1.314463,-0.377489 1.760835,0.08942 0.991897,1.037539 -0.191574,2.685507 -1.462988,2.037197 z m 0.966272,-0.768507 c 0.158456,-0.126771 0.141032,-0.570384 -0.02907,-0.740499 -0.306561,-0.306561 -0.943622,-0.08998 -0.943622,0.320807 0,0.09824 0.102473,0.281091 0.227719,0.406335 0.229778,0.229779 0.469111,0.234069 0.744986,0.01335 z M 186.09225,89.38284 c -0.54729,-0.587115 -1.98816,-2.187222 -3.20195,-3.555796 -1.21379,-1.368573 -2.27065,-2.549392 -2.34859,-2.624041 -0.0779,-0.07465 -0.62584,-0.665059 -1.21757,-1.312021 -0.59173,-0.646962 -1.13213,-1.237371 -1.20089,-1.31202 -0.10649,-0.115611 -0.12305,0.567028 -0.11176,4.605932 0.0117,4.187578 -0.003,4.750785 -0.12631,4.819758 -0.12775,0.07149 -2.21132,0.03499 -2.28636,-0.04005 -0.0179,-0.0179 -0.0348,-3.368703 -0.0376,-7.446236 l -0.005,-7.413696 0.43823,-0.02674 c 0.49217,-0.03003 0.4228,-0.08951 2.19284,1.880188 0.42301,0.470725 1.01343,1.122844 1.31202,1.449151 1.31081,1.432449 2.90837,3.213669 3.89548,4.343311 1.43189,1.638636 1.91748,2.171621 1.97851,2.171621 0.0281,0 0.0616,-2.086792 0.0745,-4.637315 l 0.0234,-4.637314 1.24469,-0.02518 1.24469,-0.02518 -0.0232,7.399639 -0.0231,7.399639 -0.41349,0.02691 -0.4135,0.02691 z m 1.09163,-6.428669 -0.0137,-6.582724 -0.48756,-0.02649 -0.48758,-0.02649 0.0246,4.867391 c 0.0135,2.677065 0.002,4.959007 -0.0243,5.070981 -0.0328,0.13631 -0.11564,0.203131 -0.25079,0.202204 -0.26485,-0.0018 -0.2798,-0.01444 -1.01618,-0.858214 -0.57616,-0.6602 -2.28594,-2.561251 -2.40069,-2.669284 -0.0264,-0.02488 -0.47305,-0.533857 -0.99249,-1.131052 -0.51943,-0.597196 -1.35393,-1.533707 -1.85445,-2.081136 -0.50051,-0.54743 -1.19399,-1.320754 -1.54107,-1.718499 -0.34708,-0.397745 -0.79916,-0.906718 -1.00465,-1.131052 -0.20548,-0.224334 -0.47903,-0.530034 -0.6079,-0.679333 l -0.23431,-0.271452 -0.003,6.673208 -0.003,6.673209 h 0.49766 0.49766 v -5.069955 c 0,-4.503155 0.0157,-5.075992 0.14072,-5.123954 0.22543,-0.08651 0.45259,0.06813 0.96367,0.656024 0.2635,0.303105 1.29344,1.443866 2.28877,2.535022 0.99533,1.091158 2.13543,2.349563 2.53355,2.796457 0.39814,0.446893 1.1107,1.245155 1.58348,1.773915 0.47278,0.52876 1.20321,1.353458 1.62319,1.832662 0.41998,0.479205 0.76767,0.871281 0.77266,0.871281 0.005,0 0.003,-2.962226 -0.005,-6.582725 z m 66.19522,7.195077 c -0.1739,-0.165329 -0.94731,-1.008172 -1.71869,-1.872985 -1.72337,-1.932122 -2.3636,-2.646295 -2.84454,-3.173092 -2.05237,-2.248032 -3.82794,-4.218947 -3.92428,-4.356007 -0.065,-0.09251 -0.1521,-0.168202 -0.19348,-0.168202 -0.0414,0 -0.0785,2.10249 -0.0825,4.672201 -0.004,2.56971 -0.0294,4.694352 -0.0565,4.721427 -0.0777,0.07771 -1.5896,0.124069 -2.01544,0.06179 l -0.38509,-0.05631 0.0232,-7.436701 0.0232,-7.436702 h 0.4474 0.4474 l 1.35369,1.492989 c 2.85433,3.148048 4.48813,4.970568 5.39412,6.017198 0.51694,0.597196 1.2076,1.384723 1.53479,1.75006 l 0.59489,0.664249 0.0452,-4.690795 0.0452,-4.690796 1.19654,-0.02523 c 1.17992,-0.02488 1.19723,-0.02237 1.24644,0.180968 0.0274,0.11341 0.0387,3.443271 0.025,7.399692 l -0.0249,7.193493 -0.4077,0.02667 c -0.35624,0.02331 -0.44758,-0.01125 -0.72387,-0.273923 z m 0.38767,-7.295705 0.02,-6.527348 -0.53112,5e-6 -0.53112,5e-6 0.0241,4.501588 c 0.0327,6.095459 0.0536,5.63264 -0.2544,5.63264 -0.19415,0 -0.35493,-0.11914 -0.70125,-0.519627 -0.24713,-0.285794 -0.83615,-0.949867 -1.30893,-1.475717 -0.47278,-0.52585 -1.47451,-1.645888 -2.22606,-2.488972 -0.75148,-0.843086 -1.64727,-1.847902 -1.99057,-2.232928 -0.34331,-0.385026 -1.21461,-1.369309 -1.93622,-2.187296 -0.72161,-0.817987 -1.34256,-1.490374 -1.37988,-1.494194 -0.0373,-0.0038 -0.0679,2.965459 -0.0679,6.598399 v 6.605345 h 0.49766 0.49766 l 0.0121,-4.637314 c 0.007,-2.550523 0.006,-4.800186 -0.002,-4.999251 -0.0358,-0.902115 0.33719,-0.757443 1.54345,0.598631 0.51421,0.578079 1.6481,1.840333 2.51977,2.80501 0.87166,0.964676 1.78781,1.984106 2.03589,2.265399 0.24808,0.281293 0.81752,0.914683 1.26541,1.407532 0.4479,0.49285 1.1775,1.311111 1.62134,1.818357 0.44385,0.507247 0.82166,0.9076 0.83959,0.889675 0.0179,-0.01792 0.0416,-2.969899 0.0526,-6.559939 z m -140.36619,7.307688 c -2.46283,-0.633333 -4.5367,-2.666441 -5.25179,-5.148544 -0.29817,-1.034979 -0.34327,-2.856071 -0.0981,-3.963289 0.5043,-2.277901 1.93037,-4.118764 3.93742,-5.082695 1.19075,-0.571882 1.70778,-0.677415 3.31268,-0.676168 1.29437,9.92e-4 1.4618,0.02075 2.17162,0.256099 2.00357,0.664305 3.47663,1.880911 4.34019,3.58458 0.47039,0.928021 0.70026,1.721716 0.81767,2.823297 0.26018,2.44095 -0.47923,4.626716 -2.12528,6.282493 -1.01783,1.023849 -2.23978,1.697549 -3.59675,1.982996 -0.90179,0.189697 -2.65569,0.160311 -3.50762,-0.05877 z m 2.98598,-0.630218 c 1.42545,-0.230242 2.51569,-0.788711 3.52888,-1.807651 1.01059,-1.016317 1.57102,-2.065301 1.86633,-3.493236 0.19838,-0.959277 0.12723,-2.833443 -0.13602,-3.583023 -0.77347,-2.202342 -2.23618,-3.659523 -4.3996,-4.382948 -0.63278,-0.211597 -0.87189,-0.242541 -1.90016,-0.24591 -1.33823,-0.0044 -1.95743,0.126441 -2.98809,0.631328 -1.28746,0.630691 -2.37969,1.743845 -3.04253,3.100839 -0.46321,0.948275 -0.60713,1.530145 -0.67493,2.728717 -0.12349,2.182826 0.81101,4.334633 2.4822,5.715628 1.33262,1.101209 3.42721,1.632926 5.26392,1.336256 z m -2.02911,-0.904366 c -2.20083,-0.36845 -3.93302,-2.031161 -4.53505,-4.353157 -0.21417,-0.826002 -0.14502,-2.614744 0.13231,-3.423076 0.43171,-1.25825 1.24696,-2.351571 2.25074,-3.018426 0.84019,-0.55817 1.58156,-0.79098 2.70581,-0.849698 1.11423,-0.0582 1.82578,0.06554 2.70354,0.470133 1.17947,0.543669 2.1019,1.514738 2.7369,2.881229 0.3685,0.792994 0.48943,1.545478 0.44656,2.778867 -0.0451,1.2961 -0.28024,2.118798 -0.85195,2.980121 -1.32346,1.993917 -3.34367,2.909884 -5.58886,2.534007 z m 2.16107,-0.857015 c 1.67563,-0.436447 3.02075,-1.893342 3.45569,-3.742846 0.18441,-0.784189 0.12059,-2.098339 -0.14197,-2.923556 -0.24899,-0.782566 -0.97093,-1.858301 -1.57113,-2.341095 -1.18924,-0.956612 -2.64961,-1.287854 -4.13471,-0.937833 -2.43195,0.573189 -4.12485,3.366075 -3.58935,5.921606 0.38392,1.832131 1.247,3.00294 2.73852,3.714914 0.30449,0.145349 0.71167,0.301376 0.90484,0.346725 0.56174,0.131877 1.76089,0.112431 2.33811,-0.03791 z m 12.63933,2.358702 c -2.11726,-0.558832 -3.83613,-2.087405 -4.73926,-4.214555 -1.04911,-2.471014 -0.74552,-5.586903 0.7382,-7.576457 1.5316,-2.053771 3.54613,-3.094519 5.99335,-3.096293 1.73997,-0.0013 3.85402,0.656109 3.9769,1.23663 0.0192,0.09088 0.0146,0.721671 -0.0103,1.401753 l -0.0452,1.236512 -0.79468,-0.482703 c -0.97061,-0.589572 -1.70417,-0.848638 -2.60469,-0.919872 -2.00469,-0.158578 -3.85935,0.853657 -4.74391,2.589116 -0.5078,0.996262 -0.70324,2.556682 -0.45819,3.658123 0.53831,2.419621 2.39666,3.947592 4.80113,3.947592 1.15484,0 2.35169,-0.409165 3.23658,-1.106486 0.57561,-0.453599 0.61741,-0.367179 0.58875,1.217425 l -0.025,1.381578 -0.45242,0.24479 c -0.843,0.456118 -1.75735,0.646382 -3.25743,0.677836 -1.20975,0.02537 -1.44928,0.0042 -2.20384,-0.194989 z m 3.44616,-0.648134 c 0.41158,-0.08095 0.78701,-0.182745 0.83429,-0.22621 0.0473,-0.04347 0.16127,-0.07903 0.25333,-0.07903 0.0921,0 0.28749,-0.06212 0.43432,-0.13805 0.23216,-0.120052 0.26678,-0.187881 0.26557,-0.520284 -0.002,-0.593923 -0.0812,-0.650367 -0.54837,-0.391479 -0.68199,0.377952 -1.47113,0.541608 -2.61719,0.542773 -1.31237,0.0013 -2.05373,-0.208059 -3.0165,-0.851993 -1.73085,-1.157662 -2.59352,-2.814314 -2.59352,-4.980529 0,-1.266041 0.1053,-1.750332 0.60856,-2.798875 0.32177,-0.670394 0.54373,-0.989669 1.01033,-1.453308 1.08888,-1.081957 2.11949,-1.52481 3.71968,-1.598337 1.17791,-0.05412 1.81409,0.06449 2.79255,0.520675 0.31662,0.14762 0.59147,0.2684 0.61076,0.2684 0.0193,0 0.0351,-0.239294 0.0351,-0.531763 v -0.531763 l -0.44437,-0.191166 c -1.10475,-0.475254 -2.67329,-0.668544 -3.77238,-0.464872 -2.64162,0.489513 -4.58132,2.169158 -5.33889,4.623096 -0.31265,1.012743 -0.35532,2.83304 -0.091,3.882781 0.90176,3.581624 4.19101,5.641104 7.85777,4.919934 z m 7.89658,0.736645 c -1.86007,-0.411214 -3.19061,-1.75259 -3.70413,-3.734317 -0.12289,-0.474253 -0.14512,-1.30552 -0.15185,-5.67858 -0.004,-2.817648 0.009,-5.140005 0.0299,-5.160794 0.0704,-0.07039 2.19888,-0.07852 2.31163,-0.0088 0.0865,0.05346 0.11235,1.111306 0.11373,4.655912 10e-4,2.559069 0.0417,4.862531 0.092,5.210611 0.22896,1.584019 1.34989,2.484941 2.97124,2.388068 1.41649,-0.08463 2.36183,-0.939582 2.6274,-2.376194 0.0629,-0.340248 0.0986,-2.21199 0.0986,-5.17124 0,-2.550888 0.0305,-4.656841 0.0679,-4.679897 0.0373,-0.02306 0.56813,-0.056 1.17957,-0.0732 0.91375,-0.02571 1.127,-0.0071 1.19753,0.104443 0.0513,0.08114 0.0864,2.089269 0.0872,4.993335 0.002,5.309293 -0.0182,5.561386 -0.52354,6.680644 -0.66553,1.474184 -1.77026,2.411001 -3.32065,2.81593 -0.75681,0.197662 -2.26123,0.214346 -3.07646,0.03412 z m 2.5788,-0.71746 c 1.69032,-0.358825 2.77072,-1.369435 3.3939,-3.174678 0.14018,-0.406079 0.15618,-0.939005 0.15628,-5.20284 v -4.75042 l -0.50934,-0.02716 -0.50934,-0.02717 0.0252,3.103628 c 0.0139,1.706995 0.003,3.897627 -0.0245,4.86807 -0.0469,1.666404 -0.0631,1.793362 -0.29078,2.284964 -0.30836,0.66576 -1.05128,1.451596 -1.64348,1.738433 -0.68171,0.330186 -1.6632,0.468416 -2.35291,0.331373 -1.57324,-0.312597 -2.57117,-1.294384 -2.85914,-2.812888 -0.0535,-0.282627 -0.0911,-2.340289 -0.0911,-4.992632 v -4.511858 h -0.52917 -0.52917 l 0.0376,4.727798 c 0.041,5.159197 0.0531,5.290709 0.58179,6.33799 0.8375,1.65907 3.02824,2.556553 5.14411,2.107392 z m 12.91662,0.72591 c -0.0871,-0.06611 -0.15835,-0.160078 -0.15835,-0.208815 0,-0.04874 -0.30175,-0.77717 -0.67054,-1.61874 -1.78713,-4.078069 -2.34912,-5.366674 -2.52204,-5.782885 -0.21719,-0.522741 -0.22994,-0.543704 -0.29261,-0.481037 -0.0257,0.02574 -0.20978,1.019928 -0.40899,2.209323 -0.19921,1.189394 -0.47971,2.773303 -0.62333,3.519797 -0.14362,0.746495 -0.2864,1.505863 -0.31728,1.687487 -0.0309,0.181622 -0.10596,0.367482 -0.16686,0.413022 -0.0869,0.06497 -1.6279,0.09021 -2.21447,0.03627 -0.16972,-0.01561 -0.14863,-0.201982 0.33906,-2.996378 0.24754,-1.41834 0.61423,-3.556029 0.81489,-4.75042 0.20066,-1.194391 0.48956,-2.863825 0.64201,-3.709852 0.15245,-0.846027 0.33486,-1.920741 0.40535,-2.388253 0.0705,-0.467512 0.17397,-0.905229 0.22997,-0.972705 0.0563,-0.06778 0.27266,-0.122683 0.48354,-0.122683 0.36319,0 0.39273,0.02086 0.60878,0.4298 0.12489,0.23639 0.32125,0.674107 0.43636,0.972705 0.11511,0.298598 0.23963,0.583623 0.27673,0.633389 0.0674,0.09041 2.66577,6.021017 3.18144,7.261356 0.14999,0.360806 0.30568,0.656011 0.34595,0.656011 0.0403,0 0.10219,-0.09126 0.1376,-0.202798 0.0354,-0.111539 0.17656,-0.447462 0.3137,-0.746495 0.13713,-0.299033 0.51929,-1.187442 0.84924,-1.974242 0.32996,-0.786798 0.71689,-1.682592 0.85985,-1.990652 0.14297,-0.308059 0.67556,-1.516977 1.18354,-2.686485 0.50799,-1.169508 0.96485,-2.177276 1.01525,-2.239483 0.10104,-0.124702 0.68351,-0.151379 0.85983,-0.03938 0.0614,0.03902 0.16996,0.455759 0.24114,0.926077 0.0712,0.470318 0.3367,1.974864 0.59003,3.343438 0.25332,1.368573 0.58496,3.200878 0.737,4.071788 0.15202,0.870911 0.45719,2.553417 0.67815,3.738903 0.22095,1.185485 0.40174,2.291637 0.40174,2.458116 v 0.302686 l -1.10843,0.03269 c -0.60964,0.01798 -1.15826,-0.003 -1.21914,-0.04676 -0.0609,-0.04369 -0.13536,-0.228045 -0.16548,-0.409667 -0.0301,-0.181624 -0.21106,-1.124223 -0.40209,-2.094666 -0.19103,-0.970443 -0.48301,-2.588979 -0.64887,-3.596746 -0.16584,-1.007768 -0.3219,-1.831784 -0.34679,-1.831147 -0.0249,6.5e-4 -0.26556,0.519791 -0.5348,1.153674 -0.4643,1.093103 -0.8632,1.997504 -1.1469,2.600262 -0.0703,0.149299 -0.41293,0.975646 -0.76149,1.836327 -0.34854,0.860682 -0.71507,1.724315 -0.81448,1.919184 -0.0994,0.194871 -0.18075,0.415576 -0.18075,0.490457 0,0.29172 -0.62736,0.425332 -0.92746,0.197525 z m -5.41823,-2.565946 c 0.16563,-0.933118 0.51875,-2.93152 0.78472,-4.440893 0.26598,-1.509374 0.5316,-2.802167 0.59028,-2.872873 0.19738,-0.237816 0.41915,-0.144305 0.60715,0.255999 0.43601,0.9284 1.77334,3.948195 2.00858,4.535535 0.14202,0.354576 0.46819,1.112941 0.72482,1.685253 0.25664,0.572313 0.59165,1.356132 0.74447,1.741821 0.15282,0.385689 0.30841,0.701252 0.34574,0.701252 0.0373,0 0.0927,-0.09894 0.12308,-0.219876 0.0303,-0.120932 0.44798,-1.128699 0.92807,-2.239484 0.48008,-1.110784 1.00603,-2.330508 1.16876,-2.710497 0.16274,-0.37999 0.40101,-0.919501 0.52949,-1.198916 0.32365,-0.703858 0.61868,-1.35769 0.91515,-2.028148 0.49184,-1.112313 0.76875,-0.923069 1.04032,0.710973 0.22547,1.356674 1.12441,6.319369 1.29389,7.143043 l 0.12101,0.588147 0.46752,0.02735 c 0.25713,0.01504 0.46641,-0.0053 0.46507,-0.04524 -0.003,-0.08762 -0.34746,-2.040978 -0.66713,-3.782444 -0.45246,-2.46481 -1.33457,-7.340219 -1.47343,-8.143576 -0.0774,-0.447897 -0.16873,-0.866463 -0.2029,-0.930148 -0.0371,-0.06911 -0.21802,0.240924 -0.44885,0.769116 -0.21268,0.486698 -0.44142,1.007059 -0.5083,1.156358 -0.0669,0.149299 -0.2237,0.51576 -0.3485,0.814358 -0.12481,0.298597 -0.62134,1.438698 -1.10341,2.533557 -0.48208,1.094858 -0.92739,2.133164 -0.98961,2.307346 -0.0622,0.174182 -0.32756,0.773773 -0.58966,1.332424 -0.44752,0.953853 -0.66385,1.214142 -0.89197,1.073157 -0.10383,-0.06417 -3.94426,-8.67606 -4.45774,-9.996179 -0.0462,-0.118877 -0.10522,-0.194997 -0.13106,-0.169159 -0.0258,0.02584 -0.14269,0.611716 -0.25968,1.301949 -0.11698,0.690233 -0.50468,2.924402 -0.86154,4.96482 -0.67646,3.86781 -1.05422,6.037604 -1.13814,6.537483 l -0.0494,0.294073 h 0.48103 0.48104 z m 80.90466,2.562749 c -0.77848,-0.173028 -1.17551,-0.317864 -1.80969,-0.660176 -2.03659,-1.099301 -3.35587,-2.900482 -3.89546,-5.318351 -0.1653,-0.740687 -0.12081,-2.430082 0.0849,-3.225437 0.38778,-1.499065 1.01107,-2.623673 1.99861,-3.606119 0.74789,-0.744021 1.07037,-0.983541 1.85764,-1.379757 1.05621,-0.531571 1.77199,-0.715144 2.99437,-0.767948 2.25405,-0.09737 3.97595,0.519006 5.49869,1.968324 1.02321,0.973886 1.56047,1.78516 1.94765,2.94099 0.95996,2.865857 0.32625,5.851289 -1.70671,8.040197 -0.79274,0.853552 -2.21334,1.657444 -3.45498,1.955101 -0.87474,0.209702 -2.68742,0.237124 -3.51504,0.05318 z m 3.06918,-0.772957 c 1.50531,-0.310592 2.8943,-1.138746 3.76195,-2.242954 1.60649,-2.044525 1.96835,-4.863929 0.93007,-7.246783 -0.66799,-1.533088 -2.26801,-3.047184 -3.80262,-3.598429 -3.10376,-1.1149 -6.66992,0.24479 -8.14801,3.106637 -0.93129,1.80315 -1.09509,3.460046 -0.53922,5.45459 0.31298,1.123044 0.89511,2.054104 1.81684,2.905863 1.65475,1.529137 3.71726,2.088156 5.98099,1.621076 z m -2.20958,-0.789721 c -1.15159,-0.152737 -2.13229,-0.661349 -3.08215,-1.598469 -0.61142,-0.603216 -0.82271,-0.887732 -1.12059,-1.50893 -0.87308,-1.820709 -0.85805,-3.779777 0.0427,-5.573021 0.91814,-1.827757 2.52316,-2.890153 4.52563,-2.995615 1.79759,-0.09467 3.1615,0.41284 4.37755,1.628886 2.03399,2.033997 2.21731,5.713531 0.39922,8.013273 -1.19098,1.5065 -3.18185,2.293908 -5.1424,2.033876 z m 1.92957,-0.888835 c 1.77535,-0.418536 3.11142,-1.811272 3.60052,-3.753225 0.20718,-0.822586 0.13179,-2.091332 -0.17701,-2.979323 -0.89389,-2.570388 -3.54599,-3.925611 -6.05948,-3.096406 -1.36687,0.450937 -2.53628,1.597356 -3.04272,2.982903 -0.23549,0.644294 -0.28649,1.000595 -0.28531,1.993494 0.002,1.561434 0.52201,2.731934 1.70151,3.828866 1.0736,0.998455 2.70628,1.390563 4.26249,1.023691 z m -68.671,2.21305 c -0.0485,-0.03005 -0.0727,-2.978341 -0.0591,-7.193493 l 0.0232,-7.142569 4.13965,-0.02354 4.13966,-0.02353 v 1.131965 1.131966 h -2.8955 -2.89549 v 1.627389 1.627387 l 2.73714,0.02395 2.73715,0.02395 v 1.131053 1.131052 l -2.41616,-0.03349 c -1.3289,-0.01842 -2.56061,-0.0064 -2.73715,0.02672 l -0.32098,0.06022 v 2.122278 2.122278 h 2.88581 c 2.54802,0 2.89225,0.01675 2.94074,0.143127 0.10991,0.286424 0.061,2.031955 -0.0582,2.075593 -0.16658,0.061 -8.12419,0.0975 -8.22077,0.0377 z m 7.61001,-1.125371 v -0.407179 h -2.94073 c -2.29123,0 -2.94117,-0.02498 -2.9427,-0.113105 -0.005,-0.26689 -0.007,-5.285402 -0.003,-5.429051 0.005,-0.147246 0.19868,-0.158347 2.76958,-0.158347 h 2.76472 l -0.0276,-0.4298 -0.0276,-0.4298 -2.73407,-0.02394 -2.73407,-0.02394 -0.0257,-2.238161 c -0.0141,-1.23099 0.01,-2.289059 0.0532,-2.351267 0.0603,-0.0864 0.74921,-0.113105 2.91811,-0.113105 h 2.83919 V 76.73339 76.326211 h -3.43839 -3.43839 v 6.469619 6.469619 h 3.48364 3.48364 z m 20.26459,1.130146 -0.22234,-0.05248 -0.0233,-6.033913 -0.0232,-6.033914 -1.8769,-0.02446 -1.87691,-0.02446 -0.0452,-1.019965 c -0.0249,-0.560981 -0.0317,-1.059775 -0.0151,-1.108431 0.0192,-0.05622 1.87451,-0.08847 5.08974,-0.08847 h 5.05957 v 1.131053 1.131052 h -1.90017 -1.90017 v 6.062441 c 0,3.334342 -0.0305,6.064405 -0.0679,6.066807 -0.58943,0.03792 -2.02973,0.03447 -2.19811,-0.0053 z m 1.56409,-6.717544 0.0232,-6.085061 1.87755,-0.02446 1.87755,-0.02446 v -0.405343 -0.405343 h -4.34324 -4.34324 v 0.407179 0.407179 h 1.89048 c 1.64041,0 1.89775,0.01893 1.94541,0.143127 0.0302,0.07872 0.0549,2.827177 0.0549,6.107682 v 5.964556 h 0.49703 0.49702 z m 2.96689,6.676706 c -0.0943,-0.113675 -0.0195,-0.3444 0.43679,-1.347248 0.30284,-0.665546 0.59004,-1.313776 0.63823,-1.440512 0.0806,-0.211991 0.57005,-1.307556 1.18157,-2.644789 0.13655,-0.298598 0.87182,-1.968031 1.63395,-3.709851 0.76211,-1.741821 1.43976,-3.231229 1.50588,-3.309798 0.0661,-0.07857 0.12021,-0.202757 0.12021,-0.275976 0,-0.07322 0.0331,-0.171808 0.0736,-0.219086 0.0405,-0.04728 0.24971,-0.501326 0.465,-1.008996 0.34246,-0.807575 0.4234,-0.93006 0.64707,-0.979187 0.52576,-0.115474 0.67483,0.06952 1.38716,1.721255 0.72886,1.690098 1.70187,3.910227 2.35952,5.383808 0.23322,0.522547 0.64466,1.459058 0.91431,2.081137 0.26964,0.622079 0.56668,1.293924 0.66006,1.492989 0.53306,1.136279 1.81785,4.095353 1.81785,4.186786 0,0.166108 -0.31118,0.202233 -1.53687,0.178411 l -1.12968,-0.02196 -0.18634,-0.361937 c -0.10248,-0.199065 -0.44549,-0.985314 -0.76223,-1.74722 l -0.57591,-1.385282 -2.78578,0.02802 -2.78579,0.02802 -0.28389,0.633389 c -0.15613,0.348364 -0.49486,1.122004 -0.75272,1.7192 l -0.46886,1.08581 -1.22963,0.02509 c -1.01005,0.02061 -1.24997,6.5e-4 -1.34348,-0.112077 z m 2.0581,-0.70475 c 0.0509,-0.06221 0.31662,-0.642438 0.59053,-1.2894 0.2739,-0.646962 0.58527,-1.369704 0.69191,-1.606094 l 0.19391,-0.4298 h 3.33294 3.33295 l 0.33334,0.791737 c 1.18572,2.816243 1.0624,2.643074 1.88389,2.645427 l 0.43133,0.0012 -0.24067,-0.474934 c -0.20993,-0.414284 -0.62864,-1.354085 -2.2274,-4.999359 -0.19644,-0.447897 -0.42994,-0.977229 -0.51891,-1.176294 -0.089,-0.199065 -0.29234,-0.667321 -0.45196,-1.040568 -0.15961,-0.373248 -0.36459,-0.841503 -0.4555,-1.040568 -0.0909,-0.199065 -0.37559,-0.850552 -0.63264,-1.447747 -0.25705,-0.597196 -0.52312,-1.207964 -0.59126,-1.357263 -0.0682,-0.149299 -0.2658,-0.597196 -0.43922,-0.995326 -0.17343,-0.398131 -0.34848,-0.723064 -0.389,-0.722074 -0.10812,0.0026 -0.17925,0.157891 -1.59519,3.481842 -0.20139,0.47278 -0.41987,0.923882 -0.48552,1.00245 -0.0656,0.07857 -0.11935,0.177288 -0.11935,0.219375 0,0.0904 -0.90111,2.220512 -0.9951,2.3523 -0.0355,0.04977 -0.50277,1.088072 -1.0384,2.307346 -0.53562,1.219275 -1.13192,2.558422 -1.3251,2.975882 -0.1932,0.417462 -0.35126,0.771164 -0.35126,0.786005 0,0.02666 0.40719,0.08636 0.78067,0.114452 0.10587,0.008 0.23413,-0.03642 0.28501,-0.09862 z m 2.02741,-4.217949 c -0.13342,-0.0846 -0.10384,-0.163262 1.38026,-3.671113 1.03634,-2.449476 1.08628,-2.551141 1.31263,-2.672284 0.23968,-0.128274 0.23734,-0.129367 0.43123,0.200907 0.41217,0.70212 2.50029,5.91898 2.4361,6.086262 -0.0441,0.114921 -0.44433,0.134324 -2.74637,0.13314 -1.48211,-7.18e-4 -2.74834,-0.03537 -2.81385,-0.07691 z m 4.59797,-0.690818 c 0.0128,0 -0.3893,-1.005052 -0.44404,-1.110059 -0.0449,-0.0862 -0.19089,-0.421386 -0.32434,-0.744867 -0.13346,-0.323481 -0.2957,-0.710301 -0.36056,-0.859599 -0.0648,-0.1493 -0.23176,-0.566658 -0.37091,-0.927463 -0.2263,-0.586746 -0.40022,-0.82936 -0.40022,-0.558294 0,0.09794 -0.5796,1.505246 -1.32249,3.211045 -0.21819,0.501011 -0.39672,0.928549 -0.39675,0.950084 -2e-5,0.02154 0.81431,0.03915 1.80963,0.03915 0.99532,0 1.80967,0 1.80968,0 z m 7.44242,5.649942 -0.20359,-0.07933 v -6.018282 -6.018277 l -1.87754,-0.02446 -1.87755,-0.02446 v -1.08581 -1.08581 l 5.04449,-0.02338 5.0445,-0.02338 v 1.131812 1.131812 h -1.90017 -1.90017 v 6.052759 c 0,5.299861 -0.0169,6.059245 -0.13588,6.104903 -0.21146,0.08114 -1.96627,0.05067 -2.19409,-0.0381 z m 1.6061,-6.735752 v -6.107683 h 1.90017 1.90017 v -0.407178 -0.407179 h -4.34325 -4.34324 v 0.407179 0.407178 h 1.89407 c 1.72545,0 1.89831,0.0141 1.94162,0.158348 0.0262,0.08709 0.0333,2.682856 0.0159,5.768366 -0.0174,3.085511 -0.0105,5.762712 0.0154,5.949336 l 0.047,0.339315 h 0.4861 0.4861 z m 5.99457,6.729082 c -0.15771,-0.159919 -0.16627,-14.24097 -0.009,-14.338344 0.0984,-0.0608 2.34838,-0.05713 2.40944,0.0039 0.0517,0.05171 0.0175,14.288342 -0.0345,14.340562 -0.0279,0.02809 -0.54634,0.06401 -1.15197,0.07981 -0.80148,0.02091 -1.13193,-0.0025 -1.21426,-0.08596 z m 1.67456,-7.158882 0.0232,-6.49224 h -0.49707 -0.49708 l -0.0238,6.477182 c -0.0131,3.56245 -0.005,6.495967 0.018,6.518925 0.023,0.02296 0.24692,0.02974 0.49766,0.01506 l 0.45589,-0.02669 z"
       id="path1" />
  </g>
</svg>
